# xmcd
#
# Track frame offsets:
# 150
# 16487
# 39111
# 57412
# 72887
# 88959
# 102545
# 123235
# 142147
# 162289
# 179570
#
# Disc length: 2587 seconds
#
#
# Revision: 0
# Processed by: cddbd v1.4PL0 Copyright (c) Steve Scherf et al.
# Submitted via: FreeRIP 2.40 
#
DISCID=9d0a190b
DTITLE=Earl Sanders. Jr. Band - Rhymes and Melodies
DYEAR=2002
DGENRE=Country
TTITLE0=Matter Of Time
TTITLE1=I'm Sorry Again
TTITLE2=The Devil Would Be Proud
TTITLE3=The Man You Love
TTITLE4=Let You Down Again
TTITLE5=Lightnin'
TTITLE6=Far From Home
TTITLE7=Ballad of Caroline
TTITLE8=Rhymes and Melodies
TTITLE9=You're the Fool
TTITLE10=All My Life
EXTD=
EXTT0=
EXTT1=
EXTT2=
EXTT3=
EXTT4=
EXTT5=
EXTT6=
EXTT7=
EXTT8=
EXTT9=
EXTT10=
PLAYORDER=
